<?xml version="1.0" encoding="UTF-8"?>
<svg viewBox="0 0 46.5 64.301094" xmlns="http://www.w3.org/2000/svg" xmlns:xlink="http://www.w3.org/1999/xlink">
 <defs>
  <linearGradient id="a">
   <stop stop-color="#a18930" offset="0"/>
   <stop stop-color="#e3c565" offset=".66667"/>
   <stop stop-color="#fffbcc" offset="1"/>
  </linearGradient>
  <linearGradient id="c" x1="32.232" x2="41.601" y1="52.825" y2="65.947" gradientUnits="userSpaceOnUse" xlink:href="#a" spreadMethod="reflect"/>
  <linearGradient id="b" x1="44.906" x2="51.25" y1="38.795" y2="47.564" gradientUnits="userSpaceOnUse" xlink:href="#a" spreadMethod="reflect"/>
 </defs>
 <g transform="translate(-144.6 -234.41)">
  <path d="m190.1 278.93c-4e-5 5.5172-2.2693 10.026-6.8078 13.527s-9.8643 5.2515-15.977 5.2515c-4.6264 0-8.4678-0.54864-11.524-1.6459s-6.4534-3.1298-10.191-6.0976l8.7213-10.769c1.8397 1.722 3.6943 3.0574 5.5639 4.0062s3.9315 1.4232 6.1858 1.4232c2.5513 1e-5 4.5385-0.38567 5.9618-1.157 1.8994-1.0086 2.8491-2.6699 2.8492-4.984-4e-5 -2.2543-2.4028-4.123-7.2084-5.606-7.1215-2.2543-11.631-3.9754-13.529-5.1632-4.8654-3.0854-7.2981-7.5941-7.2981-13.526-1e-5 -5.9934 2.2842-10.711 6.8526-14.153 4.094-3.0854 9.1377-4.6281 15.131-4.6282 7.2971 6e-5 13.942 2.2254 19.936 6.6761l-8.724 10.503c-3.1434-2.7305-6.7033-4.0958-10.68-4.0958-1.8976 5e-5 -3.4702 0.32688-4.7178 0.9805-1.6604 0.8891-2.4906 2.2236-2.4906 4.0035-2e-5 2.1367 2.4028 3.9166 7.2084 5.3398 6.9422 2.0769 11.422 3.798 13.439 5.1632 4.8653 3.3227 7.298 8.3066 7.2981 14.952z" fill="url(#c)" stroke="url(#b)" stroke-width="2"/>
 </g>
</svg>
